<?xml version="1.0" standalone="no"?>
<!DOCTYPE svg PUBLIC "-//W3C//DTD SVG 20010904//EN"
 "http://www.w3.org/TR/2001/REC-SVG-20010904/DTD/svg10.dtd">
<svg version="1.0" xmlns="http://www.w3.org/2000/svg"
 width="896.000000pt" height="896.000000pt" viewBox="0 0 896.000000 896.000000"
 preserveAspectRatio="xMidYMid meet">
<metadata>
Created by potrace 1.11, written by Peter Selinger 2001-2013
</metadata>
<g transform="translate(0.000000,896.000000) scale(0.100000,-0.100000)"
fill="#000000" stroke="none">
<path d="M1425 8793 c-34 -3 -133 -21 -214 -37 -18 -4 -87 -24 -141 -41 -49
-15 -235 -99 -238 -107 -2 -5 -9 -8 -14 -8 -10 0 -94 -50 -123 -73 -5 -4 -41
-31 -80 -59 -81 -60 -261 -239 -270 -268 -3 -11 -10 -20 -15 -20 -5 0 -19 -17
-31 -37 -13 -21 -26 -40 -29 -43 -7 -6 -100 -160 -100 -166 0 -2 -14 -34 -31
-71 -49 -107 -97 -262 -114 -368 -3 -22 -9 -58 -13 -80 -9 -53 -9 -5781 0
-5865 16 -148 70 -332 139 -477 48 -102 138 -253 150 -253 4 0 9 -6 11 -14 7
-33 200 -237 278 -295 19 -14 37 -29 40 -32 15 -19 179 -118 265 -159 134 -65
305 -120 420 -136 17 -3 53 -8 80 -12 70 -10 6094 -9 6178 1 37 5 77 10 88 13
10 2 29 6 42 9 12 3 33 7 47 10 32 6 166 49 205 66 94 40 177 80 216 104 24
16 45 28 47 26 3 -2 112 78 130 96 7 7 16 13 20 13 12 0 177 163 230 228 98
119 194 278 240 397 10 28 22 59 27 70 10 25 10 24 35 115 12 41 23 86 26 100
2 14 6 34 9 46 2 11 8 45 12 75 10 68 11 5792 1 5874 -18 155 -73 337 -150
495 -28 58 -54 107 -59 108 -5 2 -9 8 -9 13 0 8 -32 62 -62 104 -77 108 -239
275 -332 340 -16 11 -40 30 -54 43 -14 12 -29 22 -34 22 -4 0 -31 16 -58 35
-27 19 -54 35 -60 35 -6 0 -29 12 -53 27 -23 14 -42 25 -42 23 0 -2 -16 4 -35
12 -36 16 -131 52 -140 53 -9 1 -105 27 -120 32 -21 8 -38 12 -90 19 -25 3
-63 10 -85 15 -38 8 -6052 10 -6140 2z"/>
</g>
</svg>
